<?xml version="1.0" encoding="UTF-8" standalone="no"?><!DOCTYPE svg PUBLIC "-//W3C//DTD SVG 1.1//EN" "http://www.w3.org/Graphics/SVG/1.1/DTD/svg11.dtd"><svg width="100%" height="100%" viewBox="0 0 1946 1288" version="1.1" xmlns="http://www.w3.org/2000/svg" xmlns:xlink="http://www.w3.org/1999/xlink" xml:space="preserve" xmlns:serif="http://www.serif.com/" style="fill-rule:evenodd;clip-rule:evenodd;stroke-linecap:round;stroke-linejoin:round;stroke-miterlimit:5;"><g><path d="M1444.87,522.903c-116.494,-34.338 -245.06,-36.004 -387.545,0c-44.995,165.535 -57.559,333.266 -59.943,501.686l387.544,0c5.096,-176.553 26.934,-342.618 59.944,-501.686Z" style="fill:#d09ff7;stroke:#7e579d;stroke-width:18.33px;"/><ellipse cx="1627.91" cy="748.941" rx="38.661" ry="57.911" style="fill:#e3d2c9;stroke:#8b7a71;stroke-width:18.33px;"/><path d="M962.841,776.716c16.805,-17.079 19.108,-42.104 5.14,-55.849c-13.969,-13.745 -38.953,-11.037 -55.758,6.041l-84.39,85.764c19.206,5.676 38.6,18.853 52.894,47.494l82.114,-83.45Z" style="fill:#bf784a;stroke:#71462b;stroke-width:18.43px;stroke-miterlimit:1.5;"/><path d="M1044,704.274c16.806,-17.079 16.959,-44.219 0.343,-60.569c-16.616,-16.349 -43.75,-15.757 -60.555,1.322l-84.39,85.763c21.594,8.025 44.104,24.268 62.489,56.935l82.113,-83.451Z" style="fill:#e2deb8;stroke:#817d59;stroke-width:18.43px;stroke-miterlimit:1.5;"/><path d="M1286.81,636.328c-4.062,-39.494 -39.423,-68.26 -78.916,-64.198l-143.115,14.719c-39.493,4.062 -68.259,39.424 -64.197,78.917l23.499,228.487c4.062,39.494 39.424,68.26 78.917,64.198l143.114,-14.719c39.494,-4.062 68.26,-39.424 64.198,-78.917l-23.5,-228.487Z" style="fill:#e2deb8;stroke:#817d59;stroke-width:18.33px;"/><path d="M840.339,453.209c-14.592,-21.471 -24.936,-45.768 -29.908,-72.233c-22.129,-117.777 70.452,-234.167 206.613,-259.75c136.161,-25.582 256.974,46.181 289.524,161.514c11.666,41.338 17.904,90.948 11.236,150.13c-9.017,80.022 -96.894,163.684 -233.055,189.266c-136.161,25.583 -257.952,-13.497 -271.802,-87.215c-5.137,-27.342 5.291,-55.633 27.392,-81.712Z" style="fill:#bf784a;stroke:#71462b;stroke-width:18.33px;"/><rect x="1490.66" y="667.312" width="132.796" height="170.943" style="fill:#e3d2c9;stroke:#8b7a71;stroke-width:18.33px;"/><g><path d="M1293.57,324.857c0,0 60.427,-67.413 71.585,22.218c11.158,89.63 -58.72,50.996 -58.72,50.996c0.388,-26.81 -5.171,-50.561 -12.865,-73.214Z" style="fill:#bf784a;"/><path d="M1293.57,324.857c0,0 60.427,-67.413 71.585,22.218c11.158,89.63 -58.72,50.996 -58.72,50.996" style="fill:none;stroke:#71462b;stroke-width:18.43px;stroke-miterlimit:1.5;"/></g><path d="M1336.83,334.269c39.138,-45.876 6.026,-121.166 -13.485,-166.291c9.379,-3.365 23.935,-2.245 34.212,3.825c-16.955,-46.216 -42.965,-67.451 -78.41,-62.66c-0.796,-39.888 -31.983,-66.966 -92.34,-81.748c11.361,12.565 20.442,26.45 19.11,46.374c-46.426,-58.279 -148.414,-82.486 -257.052,-44.386c23.133,-4.661 47.879,8.991 58.955,16.163c-141.305,8.889 -232.577,73.82 -264.39,124.355c13.763,-5.584 44.684,-9.778 49.848,-1.599c-64.702,46.222 -17.725,173.635 -73.985,210.796c12.636,7.087 41.191,-12.394 64.998,-28.59c1.608,33.388 13.763,69.753 43.097,78.277c1.375,-46.062 -42.916,-77.05 7.119,-140.92c8.968,5.639 12.953,25.284 -5.364,54.148c52.8,1.421 79.579,-39.153 88.32,-92.053c13.748,45.923 52.773,61.42 101.5,65.241c-37.161,-32.286 -53.938,-65.274 -51.935,-98.908c31.901,36.293 68.466,77.05 126.021,82.566c-22.912,-19.35 -32.064,-37.908 -30.877,-55.871c43.565,40.646 94.094,66.793 151.752,78.099c-23.513,-30.772 -32.777,-44.479 -25.715,-77.044c43.459,57.643 84.577,98.228 91.373,172.915c5.22,-8.778 20.525,-50.257 20.954,-59.82c1.194,-26.629 25.415,-35.066 36.294,-22.869Z" style="fill:#35131b;stroke:#261015;stroke-width:18.43px;stroke-miterlimit:1.5;"/><path d="M1305.36,312.499c-0,0 48.64,-55.055 59.798,34.576c11.158,89.63 -58.72,50.996 -58.72,50.996c0.388,-26.81 7.549,-62.598 -1.078,-85.572Z" style="fill:#bf784a;"/><path d="M985.329,375.061c-6.183,-25.582 -31.449,-35.359 -54.785,-33.704c-31.591,2.241 -62.084,9.834 -92.228,26.904c-17.701,10.023 -23.573,18.509 -26.016,44.045c-1.148,12.004 2.266,37.126 5.739,48.548c5.753,18.921 23.646,25.773 45.632,26.908c37.83,1.953 70.402,-0.703 104.708,-12.121c21.324,-7.098 22.793,-25.625 23.678,-47.81c0.712,-17.86 -1.688,-31.913 -6.728,-52.77Z" style="fill:#e2e0d9;stroke:#000;stroke-width:17.49px;stroke-miterlimit:1.5;"/><path d="M997.405,373.628c-0.107,-25.86 20.202,-39.914 42.606,-45.597c33.746,-8.561 66.633,-8.582 105.306,-3.486c23.922,3.152 49.044,12.777 55.397,41.094c2.826,12.597 3.762,37.062 3.147,49.776c-1.02,21.059 -16.879,32.258 -39.561,40.145c-39.783,13.832 -97.402,20.728 -128.766,12.682c-18.434,-4.728 -25.4,-10.349 -29.64,-27.804c-4.407,-18.142 -8.397,-44.35 -8.489,-66.81Z" style="fill:#e2e0d9;stroke:#000;stroke-width:17.72px;stroke-miterlimit:1.5;"/><path d="M1297.5,314.198c-0,-0 56.494,-56.754 67.652,32.877c11.158,89.63 -58.72,50.996 -58.72,50.996" style="fill:none;stroke:#71462b;stroke-width:18.43px;stroke-miterlimit:1.5;"/><path d="M1287.67,397.195c5.22,-8.778 11.148,-30.64 12.866,-40.057c3.883,-21.288 -1.339,-37.709 -8.172,-57.068" style="fill:none;stroke:#261015;stroke-width:18.43px;stroke-miterlimit:1.5;"/><path d="M1084.4,365.133c20.727,-2.329 40.331,20.491 43.751,50.928c3.419,30.436 -10.633,57.038 -31.36,59.366c-20.727,2.329 -40.332,-20.491 -43.751,-50.928c-3.419,-30.436 10.632,-57.037 31.36,-59.366Z"/><path d="M892.66,393.359c18.243,-2.05 35.533,18.356 38.587,45.539c3.054,27.183 -9.278,50.916 -27.52,52.966c-18.243,2.049 -35.533,-18.356 -38.587,-45.539c-3.054,-27.183 9.277,-50.917 27.52,-52.966Z"/><path d="M1294.3,310.893l-90.259,40.167" style="fill:none;stroke:#000;stroke-width:26.8px;stroke-miterlimit:1.5;"/><path d="M965.054,529.116c16.401,19.793 49.547,46.447 72.874,48.206c24.108,1.818 33.426,-32.668 36.143,-58.924" style="fill:none;stroke:#392126;stroke-width:26.67px;stroke-linecap:square;stroke-linejoin:bevel;"/><path d="M1027.83,283.259c38.063,-36.376 110.814,-32.709 152.936,11.169" style="fill:none;stroke:#000;stroke-width:40px;"/><path d="M827.555,333.404c22.076,-42.077 74.21,-55.356 119.908,-36.897" style="fill:none;stroke:#000;stroke-width:40px;"/><path d="M1294.13,601.128c-17.379,-20.109 -47.815,-22.325 -67.924,-4.946c-20.108,17.38 -22.324,47.815 -4.945,67.924l87.272,100.979c28.252,-9.449 51.937,-30.879 70.515,-65.702l-84.918,-98.255Z" style="fill:#e2deb8;stroke:#817d59;stroke-width:18.43px;stroke-miterlimit:1.5;"/><g><path d="M839.73,440.991l-698.061,-0l89.861,381.15l698.061,0l-89.861,-381.15Z" style="fill:#c9d9e3;stroke:#597586;stroke-width:18.33px;"/><path d="M491.92,615.79c-1.558,-2.811 -2.701,-5.761 -3.417,-8.798c-4.716,-20.003 10.892,-36.244 34.832,-36.244c3.647,0 7.277,0.377 10.827,1.088l-42.242,43.954Z" style="fill:#fff;stroke:#597586;stroke-width:18.33px;"/><path d="M547.552,592.416c16.043,3.201 31.023,10.883 42.409,21.275c-15.151,4.35 -23.879,17.034 -20.354,31.987c3.526,14.954 18.235,27.638 35.437,31.988c-8.661,13.878 -26.012,22.923 -48.003,22.923c-30.765,-0 -60.794,-17.702 -73.487,-41.582l63.998,-66.591Z" style="fill:#fff;stroke:#597586;stroke-width:18.33px;"/></g><rect x="11.838" y="840.192" width="1391.4" height="436.426" style="fill:#a74f46;stroke:#67322b;stroke-width:18.33px;"/><path d="M929.591,822.141l373.67,0" style="fill:none;stroke:#597586;stroke-width:18.33px;"/><path d="M1383.83,712.382c17.593,16.702 18.207,46.929 18.326,63.064c-52.366,32.039 -148.535,35.623 -279.73,34.154l-131.495,2.272c15.63,-27.183 25.952,-40.793 74.848,-62.7c41.52,-6.614 49.691,11.794 88.149,10.376c105.323,-35.612 176.889,-51.121 229.902,-47.166Z" style="fill:#bf784a;stroke:#71462b;stroke-width:18.33px;"/><g><g transform="matrix(0.820135,-0.207455,0.172219,0.987933,300.35,-23.6273)"><text x="1253.47px" y="1058.66px" style="font-family:'PatrickHand-Regular', 'Patrick Hand';font-size:85.908px;fill:#8b7a71;">#1</text></g><g transform="matrix(0.820135,-0.207455,0.172219,0.987933,288.559,-25.7444)"><text x="1240.1px" y="1113.15px" style="font-family:'PatrickHand-Regular', 'Patrick Hand';font-size:85.908px;fill:#8b7a71;">sakib</text></g></g><rect x="1403.24" y="840.192" width="531.476" height="436.426" style="fill:#752820;stroke:#451712;stroke-width:18.33px;"/></g></svg>